<svg width="207" height="49" viewBox="0 0 207 49" fill="none" xmlns="http://www.w3.org/2000/svg">
<path d="M22.9997 3C35.7026 3 45.9997 13.2971 45.9997 26V42.1C45.9997 43.93 45.2728 45.685 43.9788 46.979C42.6848 48.273 40.9297 49 39.0997 49H24.1497V38.9099C24.1497 36.6076 24.29 34.2225 25.4975 32.2629C26.362 30.8586 27.5185 29.6566 28.8884 28.7385C30.2583 27.8204 31.8096 27.2077 33.4371 26.9418L33.8776 26.8705C34.0592 26.8085 34.2168 26.6912 34.3284 26.5351C34.44 26.379 34.5 26.1919 34.5 26C34.5 25.8081 34.44 25.621 34.3284 25.4649C34.2168 25.3088 34.0592 25.1915 33.8776 25.1294L33.4371 25.0581C31.0591 24.6697 28.8632 23.5441 27.1594 21.8403C25.4556 20.1365 24.3301 17.9406 23.9416 15.5626L23.8703 15.1222C23.8082 14.9406 23.6909 14.7829 23.5348 14.6713C23.3787 14.5597 23.1916 14.4997 22.9997 14.4997C22.8078 14.4997 22.6208 14.5597 22.4647 14.6713C22.3086 14.7829 22.1913 14.9406 22.1292 15.1222L22.0579 15.5626C21.7922 17.1902 21.1795 18.7415 20.2614 20.1114C19.3433 21.4814 18.1412 22.6378 16.7368 23.5022C14.7772 24.7097 12.3921 24.85 10.0898 24.85H0.0273438C0.628794 12.6818 10.6832 3 22.9997 3Z" fill="#5F6FFF"/>
<path d="M0 27.15H10.0901C12.3924 27.15 14.7775 27.2903 16.7371 28.4978C18.2689 29.4417 19.5583 30.7311 20.5022 32.2629C21.7097 34.2225 21.85 36.6076 21.85 38.9099V49H6.9C5.07001 49 3.31496 48.273 2.02096 46.979C0.726962 45.685 0 43.93 0 42.1L0 27.15ZM46 5.3C46 5.91 45.7577 6.49501 45.3263 6.92635C44.895 7.35768 44.31 7.6 43.7 7.6C43.09 7.6 42.505 7.35768 42.0737 6.92635C41.6423 6.49501 41.4 5.91 41.4 5.3C41.4 4.69 41.6423 4.10499 42.0737 3.67365C42.505 3.24232 43.09 3 43.7 3C44.31 3 44.895 3.24232 45.3263 3.67365C45.7577 4.10499 46 4.69 46 5.3Z" fill="#5F6FFF"/>
<path d="M62.504 23.648V20.096H67.72C68.4027 20.096 69.0213 19.9573 69.576 19.68C70.1307 19.4027 70.568 19.008 70.888 18.496C71.208 17.9627 71.368 17.3227 71.368 16.576C71.368 15.8507 71.208 15.2213 70.888 14.688C70.568 14.1547 70.1307 13.7493 69.576 13.472C69.0213 13.1947 68.4027 13.056 67.72 13.056H62.504V9.504H68.168C69.5973 9.504 70.8773 9.792 72.008 10.368C73.16 10.944 74.0667 11.7653 74.728 12.832C75.3893 13.8773 75.72 15.1253 75.72 16.576C75.72 18.0267 75.3893 19.2853 74.728 20.352C74.0667 21.3973 73.16 22.208 72.008 22.784C70.8773 23.36 69.5973 23.648 68.168 23.648H62.504ZM59.304 32V9.504H63.656V32H59.304ZM78.5748 32V16.544H82.7668V32H78.5748ZM82.7668 23.456L81.1348 22.368C81.3268 20.4693 81.8814 18.976 82.7988 17.888C83.7161 16.7787 85.0388 16.224 86.7668 16.224C87.5134 16.224 88.1854 16.352 88.7828 16.608C89.3801 16.8427 89.9241 17.2373 90.4148 17.792L87.7908 20.8C87.5561 20.544 87.2681 20.352 86.9268 20.224C86.6068 20.096 86.2334 20.032 85.8068 20.032C84.9108 20.032 84.1748 20.32 83.5988 20.896C83.0441 21.4507 82.7668 22.304 82.7668 23.456ZM98.8418 32.32C97.2204 32.32 95.7804 31.9787 94.5218 31.296C93.2631 30.592 92.2604 29.632 91.5138 28.416C90.7884 27.2 90.4258 25.8133 90.4258 24.256C90.4258 22.72 90.7778 21.3547 91.4818 20.16C92.2071 18.944 93.1884 17.984 94.4258 17.28C95.6631 16.5547 97.0391 16.192 98.5538 16.192C100.047 16.192 101.359 16.5333 102.49 17.216C103.642 17.8773 104.538 18.7947 105.178 19.968C105.839 21.12 106.17 22.432 106.17 23.904C106.17 24.1813 106.148 24.4693 106.106 24.768C106.084 25.0453 106.031 25.3653 105.946 25.728L92.9538 25.76V22.624L103.994 22.592L102.298 23.904C102.255 22.9867 102.084 22.2187 101.786 21.6C101.508 20.9813 101.092 20.512 100.538 20.192C100.004 19.8507 99.3431 19.68 98.5538 19.68C97.7218 19.68 96.9964 19.872 96.3778 20.256C95.7591 20.6187 95.2791 21.1413 94.9378 21.824C94.6178 22.4853 94.4578 23.2747 94.4578 24.192C94.4578 25.1307 94.6284 25.952 94.9698 26.656C95.3324 27.3387 95.8444 27.872 96.5058 28.256C97.1671 28.6187 97.9351 28.8 98.8098 28.8C99.5991 28.8 100.314 28.672 100.954 28.416C101.594 28.1387 102.148 27.7333 102.618 27.2L105.082 29.664C104.335 30.5387 103.418 31.2 102.33 31.648C101.263 32.096 100.1 32.32 98.8418 32.32ZM114.074 32.352C113.2 32.352 112.336 32.2347 111.482 32C110.65 31.7653 109.882 31.4453 109.178 31.04C108.474 30.6133 107.866 30.1013 107.354 29.504L109.85 26.976C110.384 27.5733 111.002 28.0213 111.706 28.32C112.41 28.6187 113.189 28.768 114.042 28.768C114.725 28.768 115.237 28.672 115.578 28.48C115.941 28.288 116.122 28 116.122 27.616C116.122 27.1893 115.93 26.8587 115.546 26.624C115.184 26.3893 114.704 26.1973 114.106 26.048C113.509 25.8773 112.88 25.696 112.218 25.504C111.578 25.2907 110.96 25.024 110.362 24.704C109.765 24.3627 109.274 23.904 108.89 23.328C108.528 22.7307 108.346 21.9627 108.346 21.024C108.346 20.0427 108.581 19.1893 109.05 18.464C109.541 17.7387 110.234 17.1733 111.13 16.768C112.026 16.3627 113.082 16.16 114.298 16.16C115.578 16.16 116.73 16.384 117.754 16.832C118.8 17.28 119.664 17.952 120.346 18.848L117.818 21.376C117.349 20.8 116.816 20.384 116.218 20.128C115.642 19.872 115.013 19.744 114.33 19.744C113.712 19.744 113.232 19.84 112.89 20.032C112.57 20.224 112.41 20.4907 112.41 20.832C112.41 21.216 112.592 21.5147 112.954 21.728C113.338 21.9413 113.829 22.1333 114.426 22.304C115.024 22.4533 115.642 22.6347 116.282 22.848C116.944 23.04 117.562 23.3173 118.138 23.68C118.736 24.0427 119.216 24.5227 119.578 25.12C119.962 25.7173 120.154 26.4853 120.154 27.424C120.154 28.9387 119.61 30.144 118.522 31.04C117.434 31.9147 115.952 32.352 114.074 32.352ZM130.277 32.32C128.698 32.32 127.28 31.968 126.021 31.264C124.762 30.56 123.77 29.6 123.045 28.384C122.32 27.168 121.957 25.8027 121.957 24.288C121.957 22.752 122.32 21.376 123.045 20.16C123.77 18.944 124.762 17.984 126.021 17.28C127.301 16.5547 128.72 16.192 130.277 16.192C131.493 16.192 132.613 16.416 133.637 16.864C134.661 17.312 135.546 17.952 136.293 18.784L133.605 21.504C133.2 21.056 132.709 20.7147 132.133 20.48C131.578 20.2453 130.96 20.128 130.277 20.128C129.509 20.128 128.816 20.3093 128.197 20.672C127.6 21.0133 127.12 21.4933 126.757 22.112C126.416 22.7093 126.245 23.424 126.245 24.256C126.245 25.0667 126.416 25.792 126.757 26.432C127.12 27.0507 127.6 27.5413 128.197 27.904C128.816 28.2453 129.509 28.416 130.277 28.416C130.981 28.416 131.61 28.2987 132.165 28.064C132.741 27.808 133.232 27.4453 133.637 26.976L136.357 29.696C135.568 30.5493 134.661 31.2 133.637 31.648C132.613 32.096 131.493 32.32 130.277 32.32ZM138.731 32V16.544H142.923V32H138.731ZM142.923 23.456L141.291 22.368C141.483 20.4693 142.038 18.976 142.955 17.888C143.872 16.7787 145.195 16.224 146.923 16.224C147.67 16.224 148.342 16.352 148.939 16.608C149.536 16.8427 150.08 17.2373 150.571 17.792L147.947 20.8C147.712 20.544 147.424 20.352 147.083 20.224C146.763 20.096 146.39 20.032 145.963 20.032C145.067 20.032 144.331 20.32 143.755 20.896C143.2 21.4507 142.923 22.304 142.923 23.456ZM152.044 32V16.544H156.268V32H152.044ZM154.156 14.048C153.473 14.048 152.908 13.824 152.46 13.376C152.012 12.9067 151.788 12.3307 151.788 11.648C151.788 10.9867 152.012 10.4213 152.46 9.952C152.908 9.48267 153.473 9.248 154.156 9.248C154.86 9.248 155.425 9.48267 155.852 9.952C156.3 10.4213 156.524 10.9867 156.524 11.648C156.524 12.3307 156.3 12.9067 155.852 13.376C155.425 13.824 154.86 14.048 154.156 14.048ZM168.557 32.32C167.448 32.32 166.445 32.096 165.549 31.648C164.653 31.1787 163.938 30.5493 163.405 29.76C162.872 28.9707 162.584 28.064 162.541 27.04V21.568C162.584 20.544 162.872 19.6373 163.405 18.848C163.96 18.0373 164.674 17.3973 165.549 16.928C166.445 16.4587 167.448 16.224 168.557 16.224C169.986 16.224 171.266 16.576 172.397 17.28C173.528 17.984 174.413 18.944 175.053 20.16C175.714 21.376 176.045 22.752 176.045 24.288C176.045 25.8027 175.714 27.168 175.053 28.384C174.413 29.6 173.528 30.56 172.397 31.264C171.266 31.968 169.986 32.32 168.557 32.32ZM167.821 28.448C168.589 28.448 169.272 28.2773 169.869 27.936C170.466 27.5733 170.925 27.0827 171.245 26.464C171.586 25.824 171.757 25.088 171.757 24.256C171.757 23.4453 171.586 22.7307 171.245 22.112C170.925 21.472 170.466 20.9813 169.869 20.64C169.272 20.2773 168.589 20.096 167.821 20.096C167.074 20.096 166.402 20.2773 165.805 20.64C165.208 20.9813 164.738 21.472 164.397 22.112C164.077 22.7307 163.917 23.4453 163.917 24.256C163.917 25.088 164.077 25.824 164.397 26.464C164.738 27.0827 165.197 27.5733 165.773 27.936C166.37 28.2773 167.053 28.448 167.821 28.448ZM159.981 38.464V16.544H164.173V20.608L163.469 24.352L164.141 28.096V38.464H159.981ZM180.691 32V10.112H184.883V32H180.691ZM177.075 20.224V16.544H188.499V20.224H177.075ZM197.745 32.32C196.188 32.32 194.78 31.968 193.521 31.264C192.284 30.5387 191.292 29.568 190.545 28.352C189.82 27.1147 189.457 25.7387 189.457 24.224C189.457 22.7093 189.82 21.3547 190.545 20.16C191.27 18.944 192.262 17.984 193.521 17.28C194.78 16.5547 196.177 16.192 197.713 16.192C199.292 16.192 200.7 16.5547 201.937 17.28C203.196 17.984 204.188 18.944 204.913 20.16C205.638 21.3547 206.001 22.7093 206.001 24.224C206.001 25.7387 205.638 27.1147 204.913 28.352C204.188 29.568 203.196 30.5387 201.937 31.264C200.7 31.968 199.302 32.32 197.745 32.32ZM197.713 28.416C198.502 28.416 199.196 28.2453 199.793 27.904C200.412 27.5413 200.881 27.0507 201.201 26.432C201.542 25.792 201.713 25.0667 201.713 24.256C201.713 23.4453 201.542 22.7307 201.201 22.112C200.86 21.4933 200.39 21.0133 199.793 20.672C199.196 20.3093 198.502 20.128 197.713 20.128C196.945 20.128 196.262 20.3093 195.665 20.672C195.068 21.0133 194.598 21.4933 194.257 22.112C193.916 22.7307 193.745 23.4453 193.745 24.256C193.745 25.0667 193.916 25.792 194.257 26.432C194.598 27.0507 195.068 27.5413 195.665 27.904C196.262 28.2453 196.945 28.416 197.713 28.416Z" fill="#000B6D"/>
<path d="M59.98 46V44.548H62.128C62.672 44.548 63.148 44.436 63.556 44.212C63.964 43.98 64.28 43.656 64.504 43.24C64.736 42.824 64.852 42.332 64.852 41.764C64.852 41.212 64.736 40.732 64.504 40.324C64.272 39.908 63.952 39.588 63.544 39.364C63.136 39.132 62.664 39.016 62.128 39.016H59.944V37.564H62.152C62.776 37.564 63.352 37.668 63.88 37.876C64.416 38.084 64.88 38.38 65.272 38.764C65.672 39.14 65.98 39.584 66.196 40.096C66.42 40.608 66.532 41.168 66.532 41.776C66.532 42.384 66.42 42.948 66.196 43.468C65.98 43.98 65.676 44.428 65.284 44.812C64.892 45.188 64.428 45.48 63.892 45.688C63.364 45.896 62.792 46 62.176 46H59.98ZM58.864 46V37.564H60.496V46H58.864ZM70.0848 46.12C69.5568 46.12 69.0808 45.988 68.6568 45.724C68.2328 45.46 67.9008 45.1 67.6608 44.644C67.4208 44.188 67.3008 43.676 67.3008 43.108C67.3008 42.532 67.4208 42.016 67.6608 41.56C67.9008 41.104 68.2328 40.744 68.6568 40.48C69.0808 40.216 69.5568 40.084 70.0848 40.084C70.5008 40.084 70.8728 40.168 71.2008 40.336C71.5288 40.504 71.7888 40.74 71.9808 41.044C72.1808 41.34 72.2888 41.676 72.3048 42.052V44.14C72.2888 44.524 72.1808 44.864 71.9808 45.16C71.7888 45.456 71.5288 45.692 71.2008 45.868C70.8728 46.036 70.5008 46.12 70.0848 46.12ZM70.3728 44.668C70.8128 44.668 71.1688 44.524 71.4408 44.236C71.7128 43.94 71.8488 43.56 71.8488 43.096C71.8488 42.792 71.7848 42.524 71.6568 42.292C71.5368 42.052 71.3648 41.868 71.1408 41.74C70.9248 41.604 70.6688 41.536 70.3728 41.536C70.0848 41.536 69.8288 41.604 69.6048 41.74C69.3888 41.868 69.2168 42.052 69.0888 42.292C68.9688 42.524 68.9088 42.792 68.9088 43.096C68.9088 43.408 68.9688 43.684 69.0888 43.924C69.2168 44.156 69.3888 44.34 69.6048 44.476C69.8288 44.604 70.0848 44.668 70.3728 44.668ZM71.7648 46V44.44L72.0168 43.024L71.7648 41.632V40.204H73.3248V46H71.7648ZM76.7075 46.132C76.3795 46.132 76.0555 46.088 75.7355 46C75.4235 45.912 75.1355 45.792 74.8715 45.64C74.6075 45.48 74.3795 45.288 74.1875 45.064L75.1235 44.116C75.3235 44.34 75.5555 44.508 75.8195 44.62C76.0835 44.732 76.3755 44.788 76.6955 44.788C76.9515 44.788 77.1435 44.752 77.2715 44.68C77.4075 44.608 77.4755 44.5 77.4755 44.356C77.4755 44.196 77.4035 44.072 77.2595 43.984C77.1235 43.896 76.9435 43.824 76.7195 43.768C76.4955 43.704 76.2595 43.636 76.0115 43.564C75.7715 43.484 75.5395 43.384 75.3155 43.264C75.0915 43.136 74.9075 42.964 74.7635 42.748C74.6275 42.524 74.5595 42.236 74.5595 41.884C74.5595 41.516 74.6475 41.196 74.8235 40.924C75.0075 40.652 75.2675 40.44 75.6035 40.288C75.9395 40.136 76.3355 40.06 76.7915 40.06C77.2715 40.06 77.7035 40.144 78.0875 40.312C78.4795 40.48 78.8035 40.732 79.0595 41.068L78.1115 42.016C77.9355 41.8 77.7355 41.644 77.5115 41.548C77.2955 41.452 77.0595 41.404 76.8035 41.404C76.5715 41.404 76.3915 41.44 76.2635 41.512C76.1435 41.584 76.0835 41.684 76.0835 41.812C76.0835 41.956 76.1515 42.068 76.2875 42.148C76.4315 42.228 76.6155 42.3 76.8395 42.364C77.0635 42.42 77.2955 42.488 77.5355 42.568C77.7835 42.64 78.0155 42.744 78.2315 42.88C78.4555 43.016 78.6355 43.196 78.7715 43.42C78.9155 43.644 78.9875 43.932 78.9875 44.284C78.9875 44.852 78.7835 45.304 78.3755 45.64C77.9675 45.968 77.4115 46.132 76.7075 46.132ZM83.9476 46V42.676C83.9476 42.332 83.8396 42.052 83.6236 41.836C83.4076 41.62 83.1276 41.512 82.7836 41.512C82.5596 41.512 82.3596 41.56 82.1836 41.656C82.0076 41.752 81.8676 41.888 81.7636 42.064C81.6676 42.24 81.6196 42.444 81.6196 42.676L81.0076 42.364C81.0076 41.908 81.1036 41.512 81.2956 41.176C81.4876 40.832 81.7516 40.564 82.0876 40.372C82.4316 40.18 82.8236 40.084 83.2636 40.084C83.7036 40.084 84.0916 40.18 84.4276 40.372C84.7716 40.564 85.0396 40.828 85.2316 41.164C85.4236 41.5 85.5196 41.888 85.5196 42.328V46H83.9476ZM80.0476 46V37.324H81.6196V46H80.0476ZM90.0018 46.12C89.5858 46.12 89.2098 46.032 88.8738 45.856C88.5378 45.68 88.2698 45.44 88.0698 45.136C87.8698 44.832 87.7618 44.492 87.7458 44.116V42.052C87.7618 41.676 87.8698 41.34 88.0698 41.044C88.2778 40.74 88.5498 40.504 88.8858 40.336C89.2218 40.168 89.5938 40.084 90.0018 40.084C90.5378 40.084 91.0178 40.216 91.4418 40.48C91.8658 40.744 92.1978 41.104 92.4378 41.56C92.6858 42.016 92.8098 42.532 92.8098 43.108C92.8098 43.676 92.6858 44.188 92.4378 44.644C92.1978 45.1 91.8658 45.46 91.4418 45.724C91.0178 45.988 90.5378 46.12 90.0018 46.12ZM89.7378 44.668C90.0258 44.668 90.2778 44.604 90.4938 44.476C90.7178 44.34 90.8898 44.156 91.0098 43.924C91.1378 43.684 91.2018 43.408 91.2018 43.096C91.2018 42.792 91.1378 42.524 91.0098 42.292C90.8898 42.052 90.7178 41.868 90.4938 41.74C90.2698 41.604 90.0138 41.536 89.7258 41.536C89.4378 41.536 89.1818 41.604 88.9578 41.74C88.7418 41.868 88.5698 42.052 88.4418 42.292C88.3218 42.524 88.2618 42.792 88.2618 43.096C88.2618 43.408 88.3218 43.684 88.4418 43.924C88.5698 44.156 88.7458 44.34 88.9698 44.476C89.1938 44.604 89.4498 44.668 89.7378 44.668ZM86.7858 46V37.324H88.3578V41.632L88.0938 43.024L88.3458 44.44V46H86.7858ZM96.5645 46.12C95.9805 46.12 95.4525 45.988 94.9805 45.724C94.5165 45.452 94.1445 45.088 93.8645 44.632C93.5925 44.168 93.4565 43.652 93.4565 43.084C93.4565 42.516 93.5925 42.008 93.8645 41.56C94.1365 41.104 94.5085 40.744 94.9805 40.48C95.4525 40.208 95.9765 40.072 96.5525 40.072C97.1445 40.072 97.6725 40.208 98.1365 40.48C98.6085 40.744 98.9805 41.104 99.2525 41.56C99.5245 42.008 99.6605 42.516 99.6605 43.084C99.6605 43.652 99.5245 44.168 99.2525 44.632C98.9805 45.088 98.6085 45.452 98.1365 45.724C97.6725 45.988 97.1485 46.12 96.5645 46.12ZM96.5525 44.656C96.8485 44.656 97.1085 44.592 97.3325 44.464C97.5645 44.328 97.7405 44.144 97.8605 43.912C97.9885 43.672 98.0525 43.4 98.0525 43.096C98.0525 42.792 97.9885 42.524 97.8605 42.292C97.7325 42.06 97.5565 41.88 97.3325 41.752C97.1085 41.616 96.8485 41.548 96.5525 41.548C96.2645 41.548 96.0085 41.616 95.7845 41.752C95.5605 41.88 95.3845 42.06 95.2565 42.292C95.1285 42.524 95.0645 42.792 95.0645 43.096C95.0645 43.4 95.1285 43.672 95.2565 43.912C95.3845 44.144 95.5605 44.328 95.7845 44.464C96.0085 44.592 96.2645 44.656 96.5525 44.656ZM103.097 46.12C102.569 46.12 102.093 45.988 101.669 45.724C101.245 45.46 100.913 45.1 100.673 44.644C100.433 44.188 100.313 43.676 100.313 43.108C100.313 42.532 100.433 42.016 100.673 41.56C100.913 41.104 101.245 40.744 101.669 40.48C102.093 40.216 102.569 40.084 103.097 40.084C103.513 40.084 103.885 40.168 104.213 40.336C104.541 40.504 104.801 40.74 104.993 41.044C105.193 41.34 105.301 41.676 105.317 42.052V44.14C105.301 44.524 105.193 44.864 104.993 45.16C104.801 45.456 104.541 45.692 104.213 45.868C103.885 46.036 103.513 46.12 103.097 46.12ZM103.385 44.668C103.825 44.668 104.181 44.524 104.453 44.236C104.725 43.94 104.861 43.56 104.861 43.096C104.861 42.792 104.797 42.524 104.669 42.292C104.549 42.052 104.377 41.868 104.153 41.74C103.937 41.604 103.681 41.536 103.385 41.536C103.097 41.536 102.841 41.604 102.617 41.74C102.401 41.868 102.229 42.052 102.101 42.292C101.981 42.524 101.921 42.792 101.921 43.096C101.921 43.408 101.981 43.684 102.101 43.924C102.229 44.156 102.401 44.34 102.617 44.476C102.841 44.604 103.097 44.668 103.385 44.668ZM104.777 46V44.44L105.029 43.024L104.777 41.632V40.204H106.337V46H104.777ZM107.727 46V40.204H109.299V46H107.727ZM109.299 42.796L108.687 42.388C108.759 41.676 108.967 41.116 109.311 40.708C109.655 40.292 110.151 40.084 110.799 40.084C111.079 40.084 111.331 40.132 111.555 40.228C111.779 40.316 111.983 40.464 112.167 40.672L111.183 41.8C111.095 41.704 110.987 41.632 110.859 41.584C110.739 41.536 110.599 41.512 110.439 41.512C110.103 41.512 109.827 41.62 109.611 41.836C109.403 42.044 109.299 42.364 109.299 42.796ZM115.003 46.12C114.467 46.12 113.987 45.988 113.563 45.724C113.139 45.46 112.803 45.1 112.555 44.644C112.315 44.188 112.195 43.676 112.195 43.108C112.195 42.532 112.315 42.016 112.555 41.56C112.803 41.104 113.135 40.744 113.551 40.48C113.975 40.216 114.459 40.084 115.003 40.084C115.419 40.084 115.791 40.168 116.119 40.336C116.455 40.504 116.723 40.74 116.923 41.044C117.131 41.34 117.243 41.676 117.259 42.052V44.116C117.243 44.492 117.135 44.832 116.935 45.136C116.735 45.44 116.467 45.68 116.131 45.856C115.795 46.032 115.419 46.12 115.003 46.12ZM115.267 44.668C115.563 44.668 115.819 44.604 116.035 44.476C116.259 44.34 116.431 44.156 116.551 43.924C116.679 43.684 116.743 43.408 116.743 43.096C116.743 42.792 116.679 42.524 116.551 42.292C116.431 42.052 116.259 41.868 116.035 41.74C115.819 41.604 115.567 41.536 115.279 41.536C114.983 41.536 114.723 41.604 114.499 41.74C114.283 41.876 114.111 42.06 113.983 42.292C113.863 42.524 113.803 42.792 113.803 43.096C113.803 43.408 113.863 43.684 113.983 43.924C114.111 44.156 114.287 44.34 114.511 44.476C114.735 44.604 114.987 44.668 115.267 44.668ZM118.219 46H116.659V44.44L116.911 43.024L116.647 41.632V37.324H118.219V46ZM123.322 42.868V41.536H125.278C125.534 41.536 125.766 41.484 125.974 41.38C126.182 41.276 126.346 41.128 126.466 40.936C126.586 40.736 126.646 40.496 126.646 40.216C126.646 39.944 126.586 39.708 126.466 39.508C126.346 39.308 126.182 39.156 125.974 39.052C125.766 38.948 125.534 38.896 125.278 38.896H123.322V37.564H125.446C125.982 37.564 126.462 37.672 126.886 37.888C127.318 38.104 127.658 38.412 127.906 38.812C128.154 39.204 128.278 39.672 128.278 40.216C128.278 40.76 128.154 41.232 127.906 41.632C127.658 42.024 127.318 42.328 126.886 42.544C126.462 42.76 125.982 42.868 125.446 42.868H123.322ZM122.122 46V37.564H123.754V46H122.122ZM131.503 46.12C130.975 46.12 130.499 45.988 130.075 45.724C129.651 45.46 129.319 45.1 129.079 44.644C128.839 44.188 128.719 43.676 128.719 43.108C128.719 42.532 128.839 42.016 129.079 41.56C129.319 41.104 129.651 40.744 130.075 40.48C130.499 40.216 130.975 40.084 131.503 40.084C131.919 40.084 132.291 40.168 132.619 40.336C132.947 40.504 133.207 40.74 133.399 41.044C133.599 41.34 133.707 41.676 133.723 42.052V44.14C133.707 44.524 133.599 44.864 133.399 45.16C133.207 45.456 132.947 45.692 132.619 45.868C132.291 46.036 131.919 46.12 131.503 46.12ZM131.791 44.668C132.231 44.668 132.587 44.524 132.859 44.236C133.131 43.94 133.267 43.56 133.267 43.096C133.267 42.792 133.203 42.524 133.075 42.292C132.955 42.052 132.783 41.868 132.559 41.74C132.343 41.604 132.087 41.536 131.791 41.536C131.503 41.536 131.247 41.604 131.023 41.74C130.807 41.868 130.635 42.052 130.507 42.292C130.387 42.524 130.327 42.792 130.327 43.096C130.327 43.408 130.387 43.684 130.507 43.924C130.635 44.156 130.807 44.34 131.023 44.476C131.247 44.604 131.503 44.668 131.791 44.668ZM133.183 46V44.44L133.435 43.024L133.183 41.632V40.204H134.743V46H133.183ZM140.034 46V42.676C140.034 42.332 139.926 42.052 139.71 41.836C139.494 41.62 139.214 41.512 138.87 41.512C138.646 41.512 138.446 41.56 138.27 41.656C138.094 41.752 137.954 41.888 137.85 42.064C137.754 42.24 137.706 42.444 137.706 42.676L137.094 42.364C137.094 41.908 137.19 41.512 137.382 41.176C137.582 40.832 137.854 40.564 138.198 40.372C138.55 40.18 138.946 40.084 139.386 40.084C139.81 40.084 140.19 40.192 140.526 40.408C140.862 40.616 141.126 40.892 141.318 41.236C141.51 41.572 141.605 41.936 141.605 42.328V46H140.034ZM136.134 46V40.204H137.706V46H136.134ZM145.644 46.12C145.036 46.12 144.496 45.992 144.024 45.736C143.552 45.472 143.176 45.112 142.896 44.656C142.624 44.2 142.488 43.68 142.488 43.096C142.488 42.52 142.62 42.008 142.884 41.56C143.156 41.104 143.524 40.744 143.988 40.48C144.452 40.208 144.968 40.072 145.536 40.072C146.096 40.072 146.588 40.2 147.012 40.456C147.444 40.704 147.78 41.048 148.02 41.488C148.268 41.92 148.392 42.412 148.392 42.964C148.392 43.068 148.384 43.176 148.368 43.288C148.36 43.392 148.34 43.512 148.308 43.648L143.436 43.66V42.484L147.576 42.472L146.94 42.964C146.924 42.62 146.86 42.332 146.748 42.1C146.644 41.868 146.488 41.692 146.28 41.572C146.08 41.444 145.832 41.38 145.536 41.38C145.224 41.38 144.952 41.452 144.72 41.596C144.488 41.732 144.308 41.928 144.18 42.184C144.06 42.432 144 42.728 144 43.072C144 43.424 144.064 43.732 144.192 43.996C144.328 44.252 144.52 44.452 144.768 44.596C145.016 44.732 145.304 44.8 145.632 44.8C145.928 44.8 146.196 44.752 146.436 44.656C146.676 44.552 146.884 44.4 147.06 44.2L147.984 45.124C147.704 45.452 147.36 45.7 146.952 45.868C146.552 46.036 146.116 46.12 145.644 46.12ZM149.364 46V37.324H150.936V46H149.364Z" fill="#5F5F5F"/>
</svg>
