<svg width="24" height="23" viewBox="0 0 24 23" fill="none" xmlns="http://www.w3.org/2000/svg">
<path d="M1 11.2325C1 7.17118 1 5.14055 2.26167 3.87886C3.52336 2.61719 5.55399 2.61719 9.61527 2.61719H13.9229C17.9841 2.61719 20.0149 2.61719 21.2765 3.87886C22.5382 5.14055 22.5382 7.17118 22.5382 11.2325V13.3863C22.5382 17.4475 22.5382 19.4782 21.2765 20.7398C20.0149 22.0015 17.9841 22.0015 13.9229 22.0015H9.61527C5.55399 22.0015 3.52336 22.0015 2.26167 20.7398C1 19.4782 1 17.4475 1 13.3863V11.2325Z" stroke="#1C274C" stroke-width="2"/>
<path d="M6.38281 2.61536V1" stroke="#1C274C" stroke-width="2" stroke-linecap="round"/>
<path d="M17.1523 2.61536V1" stroke="#1C274C" stroke-width="2" stroke-linecap="round"/>
<path d="M1.53906 7.99805H22.0003" stroke="#1C274C" stroke-width="2" stroke-linecap="round"/>
<path d="M18.2319 16.614C18.2319 17.2088 17.7498 17.6909 17.155 17.6909C16.5603 17.6909 16.0781 17.2088 16.0781 16.614C16.0781 16.0192 16.5603 15.5371 17.155 15.5371C17.7498 15.5371 18.2319 16.0192 18.2319 16.614Z" fill="#1C274C"/>
<path d="M18.2319 12.3074C18.2319 12.9022 17.7498 13.3843 17.155 13.3843C16.5603 13.3843 16.0781 12.9022 16.0781 12.3074C16.0781 11.7126 16.5603 11.2305 17.155 11.2305C17.7498 11.2305 18.2319 11.7126 18.2319 12.3074Z" fill="#1C274C"/>
<path d="M12.8452 16.614C12.8452 17.2088 12.3631 17.6909 11.7683 17.6909C11.1735 17.6909 10.6914 17.2088 10.6914 16.614C10.6914 16.0192 11.1735 15.5371 11.7683 15.5371C12.3631 15.5371 12.8452 16.0192 12.8452 16.614Z" fill="#1C274C"/>
<path d="M12.8452 12.3074C12.8452 12.9022 12.3631 13.3843 11.7683 13.3843C11.1735 13.3843 10.6914 12.9022 10.6914 12.3074C10.6914 11.7126 11.1735 11.2305 11.7683 11.2305C12.3631 11.2305 12.8452 11.7126 12.8452 12.3074Z" fill="#1C274C"/>
<path d="M7.46241 16.614C7.46241 17.2088 6.98026 17.6909 6.3855 17.6909C5.79075 17.6909 5.30859 17.2088 5.30859 16.614C5.30859 16.0192 5.79075 15.5371 6.3855 15.5371C6.98026 15.5371 7.46241 16.0192 7.46241 16.614Z" fill="#1C274C"/>
<path d="M7.46241 12.3074C7.46241 12.9022 6.98026 13.3843 6.3855 13.3843C5.79075 13.3843 5.30859 12.9022 5.30859 12.3074C5.30859 11.7126 5.79075 11.2305 6.3855 11.2305C6.98026 11.2305 7.46241 11.7126 7.46241 12.3074Z" fill="#1C274C"/>
</svg>
