<svg width="23" height="23" viewBox="0 0 23 23" fill="none" xmlns="http://www.w3.org/2000/svg">
<path d="M8.35156 15.6992C9.24446 16.361 10.3304 16.7492 11.5016 16.7492C12.6727 16.7492 13.7586 16.361 14.6516 15.6992" stroke="#1C274C" stroke-width="2" stroke-linecap="round"/>
<path d="M22 11.7141V13.3112C22 17.4071 22 19.4551 20.7698 20.7275C19.5397 22 17.5598 22 13.6 22H9.4C5.4402 22 3.46031 22 2.23015 20.7275C1 19.4551 1 17.4071 1 13.3112V11.7141C1 9.31126 1 8.10984 1.54516 7.11388C2.09032 6.11792 3.0863 5.49979 5.07823 4.26354L7.17823 2.96021C9.28386 1.6534 10.3367 1 11.5 1C12.6633 1 13.7161 1.6534 15.8218 2.96021L17.9218 4.26353C19.9138 5.49979 20.9097 6.11792 21.4548 7.11388" stroke="#1C274C" stroke-width="2" stroke-linecap="round"/>
</svg>
