<svg width="22" height="22" viewBox="0 0 22 22" fill="none" xmlns="http://www.w3.org/2000/svg">
<path d="M10.6637 16.5578L16.1637 13.3825L10.6637 10.207V12.1603H5.83594V14.6047H10.6637V16.5578Z" fill="#5F6FFF"/>
<path d="M6.11285 4.88867C5.43784 4.88867 4.89062 5.43589 4.89062 6.11089C4.89062 6.7859 5.43784 7.33312 6.11285 7.33312H15.8906C16.5657 7.33312 17.1128 6.7859 17.1128 6.11089C17.1128 5.43589 16.5657 4.88867 15.8906 4.88867H6.11285Z" fill="#5F6FFF"/>
<path fill-rule="evenodd" clip-rule="evenodd" d="M3.66667 0C1.64163 0 0 1.64163 0 3.66667V18.3333C0 20.3584 1.64163 22 3.66667 22H18.3333C20.3584 22 22 20.3584 22 18.3333V3.66667C22 1.64163 20.3584 0 18.3333 0H3.66667ZM18.3333 2.44444H3.66667C2.99166 2.44444 2.44444 2.99166 2.44444 3.66667V18.3333C2.44444 19.0084 2.99166 19.5556 3.66667 19.5556H18.3333C19.0084 19.5556 19.5556 19.0084 19.5556 18.3333V3.66667C19.5556 2.99166 19.0084 2.44444 18.3333 2.44444Z" fill="#5F6FFF"/>
</svg>
