<svg width="24" height="24" viewBox="0 0 24 24" fill="none" xmlns="http://www.w3.org/2000/svg">
<mask id="mask0_5946_367" style="mask-type:luminance" maskUnits="userSpaceOnUse" x="0" y="0" width="24" height="24">
<path d="M24 0H0V24H24V0Z" fill="white"/>
</mask>
<g mask="url(#mask0_5946_367)">
<path fill-rule="evenodd" clip-rule="evenodd" d="M9 0C5.96243 0 3.5 2.46243 3.5 5.5C3.5 8.53757 5.96243 11 9 11C12.0376 11 14.5 8.53757 14.5 5.5C14.5 2.46243 12.0376 0 9 0ZM5.5 5.5C5.5 3.567 7.067 2 9 2C10.933 2 12.5 3.567 12.5 5.5C12.5 7.433 10.933 9 9 9C7.067 9 5.5 7.433 5.5 5.5Z" fill="#1C274C"/>
<path d="M15.5 0C14.9477 0 14.5 0.447715 14.5 1C14.5 1.55228 14.9477 2 15.5 2C17.433 2 19 3.567 19 5.5C19 7.433 17.433 9 15.5 9C14.9477 9 14.5 9.44771 14.5 10C14.5 10.5523 14.9477 11 15.5 11C18.5376 11 21 8.53757 21 5.5C21 2.46243 18.5376 0 15.5 0Z" fill="#1C274C"/>
<path d="M19.0839 14.0159C19.305 13.5098 19.8945 13.2788 20.4006 13.4999C22.5176 14.4248 24.0002 16.5382 24.0002 19.0002V21.0002C24.0002 21.5525 23.5525 22.0002 23.0002 22.0002C22.4479 22.0002 22.0002 21.5525 22.0002 21.0002V19.0002C22.0002 17.3615 21.0147 15.9507 19.5998 15.3326C19.0937 15.1115 18.8627 14.5219 19.0839 14.0159Z" fill="#1C274C"/>
<path d="M6 13C2.68629 13 0 15.6863 0 19V21C0 21.5523 0.447715 22 1 22C1.55228 22 2 21.5523 2 21V19C2 16.7909 3.79086 15 6 15H12C14.2091 15 16 16.7909 16 19V21C16 21.5523 16.4477 22 17 22C17.5523 22 18 21.5523 18 21V19C18 15.6863 15.3137 13 12 13H6Z" fill="#1C274C"/>
</g>
</svg>
